<svg width="51" height="51" viewBox="0 0 51 51" fill="none" xmlns="http://www.w3.org/2000/svg">
<g id="Phone">
<circle id="Ellipse 1" cx="25.7117" cy="25.9346" r="25" fill="#F8FAFA"/>
<g id="Icon">
<path id="Icon_2" d="M22.4723 18.7949C22.6491 18.8693 22.8446 18.9159 23.0028 19.0228C23.31 19.2275 23.4636 19.5391 23.4776 19.9112C23.5008 20.5484 23.5474 21.181 23.701 21.8043C23.7615 22.0554 23.8406 22.3066 23.9011 22.5578C23.9988 22.9438 23.9058 23.288 23.6637 23.5996C23.2635 24.1159 22.8725 24.6415 22.4816 25.1671C22.4583 25.195 22.4583 25.2648 22.4769 25.302C23.2961 26.8695 24.455 28.116 26.0048 28.9811C26.1398 29.0602 26.2841 29.1997 26.419 29.1904C26.554 29.1811 26.675 29.0276 26.8007 28.93C27.2428 28.5951 27.6757 28.2555 28.1225 27.9253C28.4017 27.7206 28.7275 27.6648 29.0626 27.7439C29.4396 27.8323 29.812 27.9579 30.1983 28.0183C30.6823 28.0927 31.1756 28.1346 31.6643 28.1625C32.2368 28.1951 32.651 28.4928 32.8 29.0183C32.8326 29.1439 32.8465 29.2742 32.8465 29.4044C32.8512 30.2137 32.8372 31.023 32.8512 31.8323C32.8605 32.4928 32.4323 32.9812 31.8691 33.0603C31.8598 33.0603 31.8552 33.0696 31.8459 33.0742C31.6131 33.0742 31.3804 33.0742 31.1477 33.0742C31.1012 33.0649 31.0593 33.0603 31.0128 33.0556C30.4961 32.9951 29.9795 32.9626 29.4676 32.8789C28.0387 32.6463 26.6936 32.1719 25.4277 31.4742C23.4217 30.3672 21.8067 28.8462 20.5873 26.9067C19.5168 25.2183 18.8792 23.381 18.6558 21.395C18.6232 21.0973 18.5999 20.795 18.572 20.4973C18.572 20.2647 18.572 20.0322 18.572 19.7996C18.6511 19.6182 18.7116 19.4182 18.814 19.2507C18.9909 18.981 19.2702 18.8647 19.5773 18.7949C20.5408 18.7949 21.5088 18.7949 22.4723 18.7949Z" fill="#FF5017"/>
</g>
</g>
</svg>
