<svg width="50" height="51" viewBox="0 0 50 51" fill="none" xmlns="http://www.w3.org/2000/svg">
<g id="Ph Icon">
<g id="Read More">
<rect id="Rectangle 281" x="-0.00012207" y="0.740234" width="50" height="50" rx="5" fill="#FF5017"/>
</g>
<path id="Vector" d="M26.4827 21.2924H23.5175V24.2576H26.4827V21.2924ZM32.4132 21.2924H29.448V24.2576H32.4132V21.2924ZM36.861 30.9294C35.0078 30.9294 33.2286 30.6329 31.5681 30.0843C31.0492 29.9212 30.471 30.0398 30.0558 30.4401L26.7941 33.7019C22.5983 31.5669 19.1586 28.1421 17.0237 23.9463L20.2854 20.6697C20.7005 20.2694 20.8192 19.6912 20.6561 19.1723C20.1075 17.5117 19.811 15.7326 19.811 13.8793C19.811 13.0639 19.1438 12.3967 18.3284 12.3967H13.1392C12.3238 12.3967 11.6566 13.0639 11.6566 13.8793C11.6566 27.8011 22.9393 39.0837 36.861 39.0837C37.6765 39.0837 38.3436 38.4166 38.3436 37.6011V32.412C38.3436 31.5966 37.6765 30.9294 36.861 30.9294ZM35.3784 21.2924V24.2576H38.3436V21.2924H35.3784Z" fill="#F8FAFA"/>
</g>
</svg>
